<svg id="svg" xmlns="http://www.w3.org/2000/svg" xmlns:xlink="http://www.w3.org/1999/xlink" width="400" height="692.7465362673186" viewBox="0, 0, 400,692.7465362673186"><g id="svgg"><path id="path0" d="M178.810 0.489 C 175.403 0.732,167.848 1.089,162.021 1.281 C 121.708 2.613,72.659 10.016,11.247 24.038 L 0.163 26.569 0.066 41.565 C 0.013 49.813,0.196 69.250,0.475 84.760 C 1.349 133.469,1.615 152.052,1.943 187.286 C 2.631 261.006,3.519 298.172,6.530 379.299 C 8.236 425.269,8.757 484.225,7.375 474.898 C 7.222 473.867,6.967 473.024,6.808 473.024 C 6.079 473.024,6.545 549.345,7.489 584.515 C 7.660 590.880,7.967 606.137,8.171 618.419 C 8.574 642.631,8.655 643.634,10.392 645.803 C 11.667 647.395,13.668 648.425,15.890 648.633 C 16.923 648.730,21.214 649.884,25.428 651.197 C 62.160 662.651,112.581 676.759,140.016 683.258 C 156.659 687.201,185.013 692.747,188.529 692.747 C 190.826 692.747,191.454 692.141,190.220 691.117 C 188.783 689.923,190.269 689.292,193.758 689.614 C 195.039 689.732,196.895 689.905,197.881 689.997 L 199.674 690.166 198.137 689.536 C 197.183 689.145,193.595 688.512,188.683 687.869 C 172.416 685.737,162.347 683.620,162.347 682.331 C 162.347 681.406,168.266 681.979,177.148 683.765 C 234.635 695.326,269.552 694.867,278.103 682.439 C 280.229 679.349,280.768 675.684,280.038 669.275 C 278.654 657.131,277.767 616.697,278.909 617.839 C 278.968 617.897,279.410 619.702,279.892 621.850 C 280.374 623.997,280.874 625.870,281.002 626.013 C 281.130 626.155,281.336 622.634,281.461 618.189 C 281.712 609.180,282.418 596.187,283.139 587.286 C 283.401 584.059,283.615 581.166,283.617 580.858 C 283.618 580.505,283.792 580.364,284.088 580.478 C 284.650 580.693,284.534 581.309,286.243 569.030 C 288.520 552.671,293.242 525.856,293.637 527.040 C 293.696 527.215,292.865 533.067,291.791 540.045 C 285.787 579.070,283.750 597.727,282.932 621.190 L 282.557 631.948 283.607 634.800 C 284.185 636.369,284.768 637.653,284.902 637.653 C 285.036 637.653,285.239 633.509,285.353 628.443 C 286.294 586.613,295.084 536.702,312.983 471.557 C 316.545 458.590,328.084 418.277,328.199 418.392 C 328.397 418.590,324.372 433.939,317.037 460.962 C 294.099 545.458,286.760 587.790,287.261 632.710 L 287.368 642.274 288.282 643.060 C 289.454 644.067,290.810 644.062,292.018 643.047 L 292.969 642.246 293.174 633.185 C 294.428 577.811,306.925 516.125,333.701 433.134 C 336.122 425.629,338.535 417.516,339.061 415.106 C 340.757 407.349,343.505 396.760,349.961 373.105 C 358.097 343.298,362.144 327.045,364.350 315.329 C 365.483 309.308,365.142 312.784,363.858 320.350 C 363.132 324.622,362.223 330.244,361.837 332.844 C 361.035 338.241,359.565 344.420,356.345 355.934 C 352.820 368.537,348.884 385.364,349.223 386.381 C 349.283 386.561,350.350 383.766,351.594 380.171 C 352.838 376.575,353.903 373.681,353.961 373.738 C 354.097 373.874,351.150 384.946,343.716 412.225 C 333.387 450.127,329.247 467.482,330.536 467.482 C 330.935 467.482,331.440 465.880,336.443 448.737 C 338.797 440.668,344.222 422.184,348.497 407.661 C 360.828 365.768,365.132 350.401,370.329 329.712 C 371.910 323.417,373.429 317.832,373.703 317.300 C 375.854 313.142,377.285 317.827,377.307 329.095 C 377.328 340.016,377.293 340.179,369.169 366.979 C 367.034 374.022,365.119 381.170,363.971 386.376 C 362.972 390.911,361.173 398.582,359.974 403.423 L 357.792 412.225 357.587 409.525 C 357.191 404.319,356.044 406.298,354.844 414.254 C 353.839 420.923,354.464 423.232,356.126 418.989 L 356.989 416.789 356.817 421.679 C 356.696 425.118,356.745 426.402,356.982 426.006 C 357.339 425.408,362.448 406.128,368.409 382.885 C 370.386 375.175,372.719 366.447,373.594 363.488 C 378.920 345.479,383.442 329.204,385.841 319.410 C 386.531 316.593,387.149 314.343,387.215 314.409 C 387.490 314.683,382.545 338.116,379.302 351.915 C 376.646 363.211,366.032 405.285,364.252 411.573 C 364.129 412.004,364.176 412.115,364.389 411.899 C 364.894 411.388,372.627 386.486,377.347 370.171 C 415.726 237.511,405.164 147.555,342.994 77.588 C 340.306 74.562,340.341 74.588,344.530 78.724 C 346.889 81.052,348.818 82.838,348.818 82.692 C 348.818 81.758,337.398 68.777,334.401 66.304 C 332.917 65.080,328.992 61.448,325.679 58.234 C 301.314 34.598,275.298 16.277,256.033 9.188 C 236.060 1.838,206.527 -1.488,178.810 0.489 M199.022 2.285 C 229.825 4.076,252.202 9.409,269.927 19.184 C 280.504 25.017,300.629 39.082,312.388 48.859 C 315.413 51.374,315.616 51.707,312.966 49.807 C 272.348 20.683,263.239 15.453,242.958 9.615 C 231.339 6.271,205.868 1.998,208.967 3.913 C 209.250 4.088,203.822 4.212,195.446 4.223 C 165.293 4.263,138.066 5.234,116.451 7.040 C 108.409 7.713,105.548 7.350,112.143 6.495 C 124.330 4.914,142.773 3.234,154.686 2.620 C 158.452 2.426,162.266 2.223,163.162 2.170 C 167.466 1.915,194.128 2.000,199.022 2.285 M97.766 8.618 C 97.464 8.920,76.620 13.224,51.182 18.236 C 24.122 23.567,2.443 28.093,2.042 28.493 C 1.920 28.615,1.741 40.041,1.644 53.885 L 1.467 79.055 1.221 64.385 C 1.086 56.316,0.881 44.708,0.766 38.588 L 0.556 27.461 6.879 25.930 C 37.238 18.580,58.770 14.341,92.095 9.151 C 96.009 8.541,98.033 8.351,97.766 8.618 M49.653 20.495 C 51.477 22.318,45.951 24.205,21.842 29.988 C 14.222 31.815,7.964 33.334,7.937 33.363 C 7.837 33.466,8.436 144.638,8.627 161.532 C 9.150 207.810,10.808 235.460,13.893 249.331 C 14.654 252.755,14.676 253.080,14.195 253.814 C 10.994 258.699,7.771 233.563,5.874 188.916 C 5.062 169.804,4.845 157.695,4.726 124.694 C 4.655 105.330,4.372 79.731,4.097 67.808 C 3.821 55.884,3.593 42.427,3.591 37.904 L 3.586 29.678 4.319 29.507 C 4.723 29.412,9.014 28.366,13.855 27.182 C 41.244 20.484,48.321 19.162,49.653 20.495 M205.868 22.168 C 240.563 23.750,261.129 30.123,278.729 44.746 C 280.970 46.608,284.124 48.918,285.738 49.879 C 301.311 59.156,318.582 74.747,334.540 93.934 C 358.457 122.691,373.194 156.173,380.136 197.530 C 381.946 208.312,381.941 217.815,380.112 239.120 C 379.758 243.244,379.561 247.388,379.674 248.329 C 379.861 249.891,379.822 250.041,379.228 250.041 C 378.396 250.041,378.158 248.052,378.158 241.095 C 378.158 201.840,373.063 169.608,362.959 144.935 C 347.053 106.099,313.122 68.723,268.460 40.842 C 253.466 31.482,241.331 27.407,221.516 25.079 C 218.468 24.720,212.013 23.927,207.172 23.316 C 202.331 22.705,197.857 22.146,197.229 22.075 C 194.874 21.809,198.945 21.853,205.868 22.168 M332.670 66.126 L 335.592 69.275 332.018 65.880 C 326.305 60.455,325.805 59.927,327.954 61.590 C 328.941 62.353,331.062 64.394,332.670 66.126 M315.729 72.050 C 333.545 88.277,348.181 107.247,359.493 128.769 C 361.845 133.245,366.554 143.416,366.362 143.608 C 366.304 143.666,365.388 141.855,364.326 139.583 C 352.167 113.578,333.862 89.314,309.209 66.528 C 306.437 63.966,306.410 63.929,308.720 65.855 C 310.065 66.976,313.219 69.763,315.729 72.050 M336.919 70.742 C 337.620 71.459,338.119 72.046,338.030 72.046 C 337.940 72.046,337.294 71.459,336.593 70.742 C 335.893 70.024,335.393 69.438,335.483 69.438 C 335.573 69.438,336.219 70.024,336.919 70.742 M361.805 173.268 C 363.821 181.666,365.886 193.515,366.209 198.533 C 366.284 199.698,366.284 200.285,366.209 199.837 C 366.134 199.389,365.700 196.748,365.244 193.969 C 364.349 188.510,361.373 174.533,360.038 169.519 C 359.585 167.816,359.138 166.129,359.046 165.770 C 358.953 165.412,359.237 165.705,359.676 166.422 C 360.162 167.215,360.996 169.899,361.805 173.268 M367.711 191.558 C 375.379 224.675,375.440 258.625,367.900 296.659 C 367.351 299.428,367.370 299.199,368.535 288.998 C 373.186 248.251,372.326 210.370,366.209 186.471 C 366.094 186.023,366.098 185.745,366.218 185.853 C 366.338 185.962,367.010 188.529,367.711 191.558 M395.255 200.326 C 399.296 223.859,398.761 250.578,393.640 281.076 C 393.014 284.802,392.502 288.023,392.502 288.234 C 392.502 288.445,392.417 288.532,392.314 288.429 C 392.210 288.325,392.502 285.257,392.962 281.610 C 397.195 248.059,397.259 213.121,393.129 191.235 C 392.963 190.359,392.843 189.332,392.861 188.953 C 392.905 188.038,394.208 194.229,395.255 200.326 M366.653 202.849 C 366.575 203.254,366.508 202.999,366.504 202.282 C 366.501 201.565,366.565 201.233,366.646 201.545 C 366.728 201.856,366.731 202.443,366.653 202.849 M392.974 212.388 C 396.038 236.297,394.504 262.934,388.220 294.951 C 386.550 303.461,386.238 303.709,387.576 295.463 C 391.380 272.029,392.643 256.646,392.644 233.741 C 392.645 217.000,392.566 215.049,391.378 202.607 C 391.075 199.430,392.188 206.250,392.974 212.388 M366.979 206.109 C 366.901 206.514,366.834 206.259,366.830 205.542 C 366.827 204.825,366.891 204.493,366.972 204.805 C 367.054 205.116,367.057 205.703,366.979 206.109 M367.304 210.024 C 367.227 210.428,367.163 210.098,367.163 209.291 C 367.163 208.484,367.227 208.154,367.304 208.557 C 367.382 208.961,367.382 209.621,367.304 210.024 M367.630 215.240 C 367.553 215.644,367.489 215.314,367.489 214.507 C 367.489 213.700,367.553 213.370,367.630 213.773 C 367.708 214.177,367.708 214.837,367.630 215.240 M367.951 226.487 C 367.869 226.801,367.802 226.544,367.802 225.917 C 367.802 225.289,367.869 225.033,367.951 225.346 C 368.033 225.660,368.033 226.174,367.951 226.487 M364.039 273.757 C 363.957 274.071,363.890 273.814,363.890 273.187 C 363.890 272.559,363.957 272.302,364.039 272.616 C 364.121 272.930,364.121 273.443,364.039 273.757 M362.510 282.860 C 360.030 297.052,352.317 330.139,351.830 328.678 C 351.763 328.475,353.183 322.324,354.986 315.010 C 358.620 300.266,360.259 292.890,362.089 283.036 C 362.765 279.399,363.364 276.564,363.421 276.736 C 363.479 276.907,363.069 279.663,362.510 282.860 M379.330 336.293 C 374.474 358.046,374.069 359.207,376.496 344.417 C 376.827 342.402,381.221 326.270,381.345 326.615 C 381.395 326.752,380.488 331.108,379.330 336.293 " stroke="none" fill="#000000" fill-rule="evenodd"></path></g></svg>