<svg id="svg" xmlns="http://www.w3.org/2000/svg" xmlns:xlink="http://www.w3.org/1999/xlink" width="400" height="518.1347150259068" viewBox="0, 0, 400,518.1347150259068"><g id="svgg"><path id="path0" d="M338.095 8.201 C 331.402 30.541,296.526 70.616,268.665 87.981 C 245.353 102.511,228.158 108.398,158.856 125.577 C 94.193 141.606,69.136 148.934,54.922 155.974 C -31.657 198.852,-9.494 340.173,94.969 411.325 L 110.074 421.614 93.897 425.153 C 64.538 431.576,28.551 449.196,27.302 457.760 C 25.219 472.044,39.566 471.388,71.649 455.730 L 94.594 444.533 86.798 456.594 C 68.255 485.285,65.850 523.985,83.815 504.600 C 86.636 501.556,95.557 485.869,103.640 469.740 C 111.722 453.611,117.889 442.280,117.344 444.560 C 116.799 446.839,116.055 457.565,115.690 468.394 L 115.026 488.083 120.207 488.083 C 127.245 488.083,134.490 473.320,136.674 454.530 C 138.214 441.285,138.332 441.960,138.588 465.474 C 138.984 501.928,144.885 518.135,157.761 518.135 C 170.233 518.135,169.346 476.700,156.335 451.539 C 151.917 442.995,152.220 442.941,171.029 448.914 C 311.205 493.428,432.319 399.061,392.847 276.083 C 389.814 266.633,380.908 243.588,373.057 224.870 C 343.094 153.439,337.996 119.357,350.169 71.833 C 354.691 54.175,369.714 18.147,374.585 13.275 C 379.426 8.435,374.207 4.145,363.477 4.145 C 358.487 4.145,354.404 3.212,354.404 2.073 C 354.404 -4.935,340.461 0.305,338.095 8.201 M348.424 22.464 C 343.993 28.687,337.824 34.499,337.824 32.450 C 337.824 30.936,350.331 16.580,351.651 16.580 C 352.181 16.580,350.729 19.228,348.424 22.464 M338.941 43.523 C 341.306 43.523,341.258 45.006,338.653 52.332 C 319.664 105.738,324.660 151.229,358.514 233.161 C 395.074 321.639,392.997 359.965,349.308 403.091 C 239.816 511.171,-4.109 386.665,16.945 233.444 C 23.902 182.817,46.278 167.824,152.324 142.735 C 261.626 116.876,297.185 98.310,327.461 51.292 C 331.451 45.096,335.026 40.814,335.406 41.775 C 335.786 42.737,337.377 43.523,338.941 43.523 M251.813 132.909 C 243.834 139.765,221.917 155.249,203.109 167.316 C 124.171 217.964,95.543 250.242,95.386 288.774 C 95.320 304.967,98.987 303.412,104.658 284.843 C 116.693 245.431,136.206 223.996,197.927 182.380 C 237.416 155.754,269.430 129.192,269.430 123.053 C 269.430 118.463,267.125 119.753,251.813 132.909 M293.421 179.567 C 277.635 275.081,260.516 327.986,227.742 382.535 L 215.198 403.412 202.764 401.711 C 184.379 399.197,166.080 394.644,154.629 389.735 L 144.492 385.389 145.869 370.579 C 149.547 330.998,170.823 290.569,216.550 236.269 C 252.878 193.131,261.766 180.028,254.404 180.464 C 250.725 180.683,190.799 248.616,175.901 269.458 C 151.673 303.351,138.502 334.341,135.629 364.210 L 134.187 379.197 128.015 375.609 C 124.620 373.635,117.239 367.007,111.613 360.880 C 101.167 349.502,95.990 347.731,102.581 357.789 C 107.793 365.744,123.874 380.993,130.859 384.606 C 134.251 386.360,136.788 389.369,136.788 391.641 C 136.788 396.788,140.348 398.920,143.951 395.930 C 146.097 394.149,148.725 394.390,154.741 396.922 C 165.562 401.475,194.281 408.258,202.812 408.276 C 208.635 408.288,209.521 408.882,208.245 411.917 C 202.259 426.160,205.582 428.242,217.344 417.617 C 223.412 412.134,227.210 410.363,232.894 410.363 C 237.030 410.363,240.415 409.430,240.415 408.290 C 240.415 407.150,238.604 406.218,236.392 406.218 C 229.452 406.218,229.713 402.683,237.557 390.421 C 271.335 337.618,298.833 239.735,304.007 153.886 C 306.142 118.476,301.761 129.102,293.421 179.567 M193.795 149.623 C 189.243 152.022,171.056 159.499,153.381 166.239 C 89.691 190.522,68.017 204.728,49.244 234.496 C 32.958 260.319,34.271 307.546,51.740 324.282 C 60.620 332.790,61.487 329.743,54.788 313.561 C 31.620 257.597,60.194 215.523,146.618 178.341 C 190.287 159.554,205.181 151.877,205.181 148.157 C 205.181 144.177,203.790 144.356,193.795 149.623 M319.171 183.656 C 319.171 185.496,321.480 200.651,324.301 217.335 C 340.832 315.077,331.884 355.301,282.172 406.729 C 265.483 423.993,264.373 428.173,278.284 421.362 C 319.352 401.257,346.391 345.414,343.319 287.047 C 342.098 263.851,330.846 199.847,325.533 185.872 C 323.211 179.766,319.171 178.358,319.171 183.656 M128.282 444.163 C 129.906 453.080,129.821 458.991,127.955 466.961 C 125.072 479.274,124.937 478.591,123.874 446.208 C 123.246 427.057,125.017 426.235,128.282 444.163 M79.689 441.219 C 77.575 443.196,44.251 458.031,41.926 458.031 C 38.734 458.031,50.475 451.319,63.621 445.629 C 78.205 439.317,83.186 437.950,79.689 441.219 M94.825 469.485 C 84.140 490.969,78.449 496.675,87.011 477.319 C 91.346 467.519,103.300 447.668,104.867 447.668 C 105.311 447.668,100.792 457.486,94.825 469.485 M151.109 465.263 C 159.223 486.949,160.387 519.205,152.506 503.964 C 149.205 497.581,148.347 492.514,146.216 466.839 C 144.898 450.952,145.662 450.705,151.109 465.263 " stroke="none" fill="#000000" fill-rule="evenodd"></path></g></svg>