<svg id="svg" xmlns="http://www.w3.org/2000/svg" xmlns:xlink="http://www.w3.org/1999/xlink" width="400" height="540.6392694063927" viewBox="0, 0, 400,540.6392694063927"><g id="svgg"><path id="path0" d="M57.680 2.855 C 50.198 10.337,48.611 41.548,54.555 64.332 L 57.757 76.609 53.079 75.291 C 22.630 66.711,22.956 94.462,53.650 124.018 L 60.100 130.228 54.251 133.151 C 45.160 137.693,45.357 145.010,54.861 155.806 C 59.381 160.942,61.363 164.384,59.799 164.384 C 52.517 164.384,47.810 179.173,53.073 185.515 C 54.883 187.696,54.193 188.128,48.898 188.128 C 29.932 188.128,22.921 197.872,33.460 209.582 C 37.783 214.385,38.135 213.948,26.484 218.244 C -11.144 232.119,-6.153 257.840,34.734 260.765 L 47.307 261.665 46.389 272.842 C 44.349 297.690,56.749 300.909,78.995 281.307 C 85.939 275.189,87.671 274.341,87.671 277.064 C 87.671 297.734,125.255 281.721,147.333 251.645 L 153.997 242.567 161.599 261.466 C 170.803 284.349,189.507 323.134,203.285 347.907 L 213.421 366.133 202.427 370.115 L 191.432 374.096 176.538 363.918 C 153.783 348.368,117.875 333.377,90.272 327.904 C 70.403 323.964,64.784 340.432,80.372 356.914 L 89.511 366.577 77.484 369.833 C 51.273 376.928,45.977 397.252,68.842 402.991 C 73.075 404.053,73.001 404.250,65.265 412.540 C 44.644 434.636,40.338 469.454,58.144 470.128 L 63.221 470.320 59.721 479.452 C 45.048 517.729,60.962 553.033,83.649 532.536 L 90.596 526.260 95.418 532.303 C 111.252 552.147,133.124 535.413,147.020 492.822 L 152.789 475.142 156.032 480.634 C 165.558 496.759,187.516 496.594,194.116 480.348 C 195.022 478.117,195.625 478.285,197.459 481.279 C 214.628 509.311,240.183 503.665,240.183 471.839 C 240.183 450.112,224.065 404.759,211.645 391.539 C 207.495 387.121,208.228 386.226,217.366 384.550 L 223.744 383.380 237.420 405.845 C 259.731 442.497,284.726 472.802,290.959 470.757 C 298.932 468.141,288.368 444.575,258.886 399.211 L 239.973 370.111 245.393 355.915 L 250.812 341.719 256.256 345.596 C 259.250 347.728,269.255 356.573,278.490 365.251 C 307.914 392.903,330.594 395.192,330.594 370.510 C 330.594 362.154,330.841 362.113,344.252 368.253 C 367.699 378.987,386.135 364.831,374.202 345.256 C 370.563 339.285,370.524 338.803,373.540 337.036 C 397.437 323.044,386.936 299.543,356.787 299.543 C 349.118 299.543,352.284 296.528,362.537 294.069 C 391.368 287.152,405.495 271.632,397.330 255.843 C 394.649 250.659,383.405 244.749,376.222 244.749 C 372.999 244.749,373.293 243.796,378.952 235.919 C 406.599 197.437,385.652 175.980,349.420 205.670 L 341.553 212.117 341.553 206.788 C 341.553 177.400,321.093 179.132,305.213 209.863 L 296.399 226.919 294.271 212.610 C 290.013 183.978,273.771 181.274,263.745 207.527 L 260.643 215.651 256.688 211.935 C 245.568 201.489,236.594 211.238,232.787 237.900 L 231.549 246.575 221.796 246.575 C 203.338 246.575,196.512 254.165,200.643 270.094 C 203.531 281.229,221.678 317.845,229.181 327.673 L 235.108 335.439 231.564 342.347 C 227.416 350.432,228.619 351.569,213.941 325.688 C 205.496 310.797,175.505 250.045,173.082 242.922 C 172.289 240.589,174.653 240.275,189.016 240.807 C 214.952 241.767,226.352 233.926,224.321 216.524 C 223.603 210.378,223.888 210.029,231.813 207.329 C 249.852 201.182,259.022 190.698,257.040 178.486 C 256.188 173.235,256.872 171.986,263.020 167.567 C 277.586 157.097,286.190 136.030,278.505 129.652 C 275.773 127.385,262.096 127.957,252.511 130.740 C 248.667 131.856,248.402 131.384,248.402 123.418 C 248.402 97.203,223.454 102.423,197.850 133.995 C 192.310 140.826,192.063 140.927,190.064 137.191 C 187.373 132.164,180.248 132.193,173.131 137.260 L 167.616 141.187 169.022 136.804 C 175.003 118.145,175.358 92.332,169.730 85.178 C 165.859 80.256,157.705 78.637,154.247 82.105 C 153.151 83.203,152.743 76.728,153.141 64.523 C 154.716 16.164,133.993 1.111,115.993 37.541 L 109.113 51.463 104.043 42.191 C 87.444 11.837,66.483 -5.948,57.680 2.855 M77.295 25.531 C 83.083 31.782,90.616 42.866,94.917 51.459 C 107.140 75.881,109.159 76.602,116.916 59.313 C 125.874 39.349,133.522 29.367,135.660 34.849 C 138.400 41.874,137.697 72.726,134.464 87.334 C 128.663 113.544,132.892 118.051,148.667 102.472 C 161.403 89.895,163.366 90.168,161.768 104.292 C 159.373 125.461,141.862 166.205,138.733 157.889 C 118.588 104.352,109.238 84.018,104.768 84.018 C 99.845 84.018,102.394 96.394,114.847 132.945 L 127.411 169.821 122.610 168.670 C 100.223 163.302,64.686 148.127,61.168 142.434 C 60.497 141.348,64.449 140.836,71.396 141.109 C 87.038 141.722,86.887 139.421,70.260 123.751 C 55.311 109.663,39.205 87.919,41.798 85.326 C 43.636 83.487,52.924 87.118,63.561 93.833 C 74.363 100.652,82.868 96.703,75.063 88.493 C 68.471 81.560,60.961 41.718,63.068 24.856 C 64.655 12.150,64.919 12.163,77.295 25.531 M236.441 128.020 C 236.392 132.449,235.706 139.040,234.916 142.667 C 232.970 151.597,236.190 152.541,248.630 146.690 C 259.291 141.675,268.493 138.550,268.493 139.944 C 268.493 146.131,248.863 166.210,242.815 166.210 C 233.115 166.210,230.182 174.621,238.356 178.995 C 250.222 185.346,224.685 198.091,202.806 196.738 C 193.204 196.145,193.150 201.604,202.672 210.397 C 214.478 221.298,208.884 228.108,188.128 228.102 C 151.502 228.092,154.057 213.272,195.431 185.750 C 208.069 177.343,211.624 171.677,204.244 171.707 C 197.446 171.734,181.666 181.851,168.903 194.365 L 157.091 205.947 155.061 199.171 C 152.594 190.938,160.548 171.726,173.559 154.493 C 182.611 142.504,183.184 142.626,183.399 156.586 C 183.627 171.318,187.549 171.635,196.462 157.644 C 206.655 141.642,213.406 133.650,223.402 125.748 C 234.336 117.105,236.557 117.492,236.441 128.020 M96.367 182.868 C 118.371 189.556,138.115 199.441,140.149 204.787 L 141.970 209.574 125.323 210.561 C 105.811 211.717,83.432 218.339,82.528 223.222 C 81.533 228.603,89.740 228.804,108.742 223.865 C 151.882 212.653,158.317 223.657,126.608 254.413 C 103.907 276.431,95.764 279.091,97.324 263.978 C 99.220 245.612,93.945 246.045,74.687 265.834 C 57.166 283.840,54.300 283.098,62.100 262.577 C 68.694 245.225,68.277 244.829,44.749 246.127 C 27.744 247.065,12.866 243.572,15.527 239.267 C 18.688 234.152,52.091 221.005,61.925 221.005 C 70.444 221.005,66.069 214.355,53.467 208.151 L 41.180 202.103 46.528 200.320 C 50.175 199.104,57.299 199.282,68.925 200.878 C 92.221 204.077,93.716 201.364,75.910 188.210 C 59.185 175.855,66.774 173.873,96.367 182.868 M329.160 217.787 C 329.817 241.395,332.029 242.710,345.556 227.532 C 377.952 191.184,392.041 200.212,363.020 238.723 C 353.352 251.551,354.194 254.215,368.827 257.115 C 380.302 259.389,385.388 261.838,385.388 265.091 C 385.388 269.567,355.761 282.722,326.027 291.449 C 295.765 300.330,299.763 306.721,337.106 309.155 C 354.048 310.260,372.763 315.294,373.968 319.071 C 375.271 323.156,363.762 327.261,352.786 326.625 C 339.550 325.859,337.140 331.222,347.769 337.790 C 369.832 351.426,368.095 363.056,345.343 354.028 C 336.285 350.433,329.400 348.856,324.375 349.224 L 316.895 349.772 317.349 360.053 C 318.189 379.097,312.154 377.827,285.017 353.248 C 275.521 344.647,265.452 336.421,262.643 334.968 C 256.157 331.614,256.204 331.113,264.103 319.362 C 280.744 294.602,298.527 275.915,321.012 259.562 C 335.501 249.023,338.363 243.490,328.311 245.449 C 306.894 249.621,268.827 280.778,249.341 310.082 C 238.520 326.355,241.259 327.905,226.375 297.089 C 208.203 259.464,208.160 255.361,225.984 259.500 C 239.821 262.712,240.541 262.314,241.921 250.685 C 243.071 240.995,245.489 229.284,247.642 222.972 C 248.297 221.053,249.302 221.531,251.485 224.799 C 255.296 230.504,263.372 239.269,264.816 239.269 C 265.432 239.269,266.935 234.543,268.157 228.767 C 275.428 194.378,282.254 195.019,284.868 230.337 C 287.195 261.781,290.071 261.744,306.810 230.054 C 326.511 192.755,328.434 191.699,329.160 217.787 M117.063 350.718 C 138.288 357.690,178.995 375.669,178.995 378.073 C 178.995 378.777,175.509 380.917,171.249 382.828 C 143.275 395.372,92.030 439.792,98.299 446.062 C 99.843 447.606,102.661 446.201,109.371 440.544 C 128.617 424.315,168.815 400.313,187.693 393.777 L 194.452 391.437 205.913 410.705 C 226.673 445.604,235.126 475.376,226.675 483.828 C 220.865 489.637,219.058 488.271,197.074 461.462 C 194.303 458.084,187.834 462.802,183.493 471.368 C 178.030 482.149,173.792 482.960,167.492 474.429 C 162.473 467.633,157.078 454.603,157.078 449.278 C 157.078 444.682,150.560 444.371,148.268 448.858 C 147.370 450.616,144.782 459.041,142.517 467.580 C 127.438 524.436,104.336 548.836,100.949 511.484 C 99.701 497.718,99.133 497.758,85.005 512.598 C 69.245 529.153,66.724 528.226,68.029 506.354 C 68.760 494.096,70.487 486.434,75.502 473.207 C 83.683 451.629,82.409 449.962,62.271 455.900 C 46.972 460.412,76.509 410.546,93.242 403.615 C 104.392 398.997,99.274 392.713,84.326 392.669 C 74.373 392.640,67.580 391.097,67.580 388.865 C 67.580 384.434,93.107 376.256,106.939 376.256 C 116.480 376.256,115.167 370.877,103.111 360.577 C 97.538 355.816,91.292 349.552,89.230 346.656 L 85.482 341.392 90.686 342.578 C 93.548 343.231,105.418 346.894,117.063 350.718 " stroke="none" fill="#000000" fill-rule="evenodd"></path></g></svg>