<svg id="svg" xmlns="http://www.w3.org/2000/svg" xmlns:xlink="http://www.w3.org/1999/xlink" width="400" height="464.2857142857143" viewBox="0, 0, 400,464.2857142857143"><g id="svgg"><path id="path0" d="M247.619 4.762 C 224.947 27.433,251.332 151.547,281.772 165.416 C 303.123 175.145,302.874 171.154,289.286 285.714 C 270.330 445.528,273.839 464.286,322.692 464.286 C 370.380 464.286,372.998 452.964,359.254 306.162 L 347.500 180.604 371.964 158.760 L 396.429 136.916 396.429 70.244 C 396.429 6.964,395.628 3.458,380.694 1.333 C 365.966 -0.762,364.823 2.208,362.837 47.762 C 360.188 108.507,347.686 108.866,342.857 48.335 C 337.424 -19.765,308.927 -23.378,305.710 43.625 C 303.012 99.806,285.714 112.520,285.714 58.322 C 285.714 6.549,269.138 -16.757,247.619 4.762 M17.516 26.043 C -23.014 69.775,1.327 158.069,59.736 179.190 L 83.051 187.621 106.619 307.661 C 133.015 442.098,139.826 457.143,174.298 457.143 C 234.067 457.143,234.109 423.723,174.516 284.585 C 128.156 176.342,127.736 174.776,138.802 151.570 C 182.709 59.496,82.567 -44.148,17.516 26.043 " stroke="none" fill="#000000" fill-rule="evenodd"></path></g></svg>