<svg id="svg" xmlns="http://www.w3.org/2000/svg" xmlns:xlink="http://www.w3.org/1999/xlink" width="400" height="395.2755905511811" viewBox="0, 0, 400,395.2755905511811"><g id="svgg"><path id="path0" d="M80.787 2.838 C 66.150 8.065,51.969 20.699,51.969 28.511 C 51.969 30.312,50.036 31.402,45.583 32.115 C 13.668 37.218,-4.589 76.021,8.994 109.883 L 12.327 118.191 8.504 122.735 C -4.513 138.204,-2.726 168.225,12.625 191.976 C 19.495 202.605,25.354 208.672,63.609 244.771 C 77.312 257.702,102.547 283.955,119.686 303.112 C 167.057 356.059,182.946 365.554,220.472 363.338 C 249.358 361.633,288.189 336.206,288.189 318.998 C 288.189 317.862,292.472 316.429,298.819 315.442 C 314.321 313.032,323.691 308.045,335.639 295.844 L 346.082 285.182 348.597 294.166 C 352.375 307.656,354.684 327.016,353.594 336.058 C 351.454 353.805,348.933 366.319,346.833 369.608 C 340.310 379.828,355.921 393.093,376.501 394.819 L 387.368 395.730 391.248 387.235 C 408.697 349.028,400.768 301.049,372.086 271.283 C 366.218 265.194,360.207 259.585,358.728 258.820 C 356.344 257.587,356.216 256.182,357.604 246.431 C 358.464 240.382,358.716 231.783,358.163 227.323 C 357.262 220.065,357.496 219.105,360.382 218.189 C 370.666 214.925,387.214 188.620,391.395 168.891 C 405.442 102.604,356.312 46.502,277.953 39.350 C 241.435 36.017,219.070 32.890,205.271 29.188 C 192.080 25.650,183.489 22.685,142.520 7.533 C 120.941 -0.448,95.423 -2.389,80.787 2.838 M126.167 16.730 C 130.830 18.112,144.812 23.794,157.237 29.357 C 195.167 46.338,216.406 51.190,262.992 53.513 C 284.221 54.572,295.285 55.860,303.769 58.260 C 360.955 74.438,394.528 125.551,380.290 174.761 L 377.341 184.955 375.215 176.336 C 370.602 157.636,349.972 121.260,343.980 121.260 C 340.960 121.260,341.096 121.889,345.680 129.151 C 357.365 147.661,371.654 181.644,371.654 190.925 C 371.654 196.615,364.679 206.433,364.088 201.575 C 359.434 163.325,321.711 122.141,277.348 106.879 C 259.066 100.589,260.217 104.162,279.921 114.868 C 328.836 141.446,353.089 168.857,358.272 203.419 C 359.896 214.247,356.790 213.924,353.739 202.948 C 342.789 163.565,308.053 130.922,260.193 115.037 C 232.399 105.812,226.220 109.347,250.792 120.415 C 312.140 148.048,342.670 183.494,344.544 229.265 C 348.063 315.257,264.242 329.210,191.880 254.677 C 168.001 230.083,162.777 230.555,174.989 256.202 C 188.186 283.917,237.241 314.961,267.840 314.961 C 276.534 314.961,277.815 316.472,273.203 321.286 C 268.306 326.398,268.571 326.438,244.882 316.991 C 224.117 308.710,210.714 301.037,190.018 285.585 C 175.034 274.396,171.654 272.515,171.654 275.362 C 171.654 284.234,222.121 317.041,250.437 326.576 C 262.776 330.731,263.147 331.257,257.092 336.020 C 250.500 341.205,241.428 338.803,213.862 324.572 C 186.994 310.703,187.402 310.868,187.402 313.873 C 187.402 317.599,224.677 338.257,237.795 341.801 L 244.882 343.716 236.220 346.720 C 201.908 358.624,173.107 344.925,140.786 301.327 C 120.261 273.642,91.148 242.842,64.142 220.244 C 26.578 188.810,16.328 176.930,11.811 159.586 C 7.743 143.969,8.779 141.106,14.568 151.969 C 19.343 160.929,37.616 181.102,40.958 181.102 C 43.982 181.102,42.441 178.403,34.597 169.952 C 19.190 153.355,10.317 137.454,12.802 130.897 C 14.149 127.344,14.558 127.666,20.631 137.063 C 32.973 156.157,50.786 173.635,67.844 183.386 C 82.470 191.746,80.375 187.101,63.386 173.499 C 50.332 163.048,34.191 147.583,39.460 150.576 C 40.808 151.342,46.477 155.242,52.058 159.243 C 78.579 178.255,123.122 201.917,126.338 198.701 C 131.862 193.177,114.228 178.579,76.383 157.345 C 36.494 134.964,18.864 113.999,18.626 88.657 C 18.277 51.592,49.135 37.326,92.126 54.677 C 100.787 58.173,119.567 65.753,133.858 71.523 C 162.605 83.128,189.163 92.913,191.915 92.913 C 204.109 92.913,125.646 50.824,88.976 37.695 C 84.646 36.144,82.520 34.830,84.252 34.775 C 87.402 34.674,112.169 42.970,123.144 47.802 C 128.097 49.983,133.061 49.072,130.450 46.460 C 122.976 38.986,97.381 29.755,77.967 27.531 L 68.533 26.450 73.243 22.682 C 79.706 17.511,91.278 17.568,104.240 22.835 C 119.534 29.049,120.787 24.044,105.575 17.500 C 101.209 15.622,97.638 13.653,97.638 13.125 C 97.638 11.564,116.984 14.009,126.167 16.730 M373.181 292.737 C 385.783 314.129,390.684 345.808,384.577 366.391 L 382.634 372.939 375.175 370.006 C 371.073 368.394,365.703 366.657,363.243 366.148 C 359.811 365.438,359.017 364.596,359.834 362.532 C 367.588 342.952,366.526 310.081,357.358 285.890 L 354.350 277.953 358.200 282.677 C 368.402 295.194,376.290 318.428,376.379 336.220 C 376.465 353.382,380.566 353.710,382.102 336.678 C 383.812 317.709,376.035 296.128,360.563 276.910 L 352.527 266.929 359.787 274.627 C 363.780 278.860,369.807 287.010,373.181 292.737 M367.717 376.552 C 370.315 377.358,374.213 379.460,376.378 381.223 L 380.315 384.428 373.228 383.367 C 365.249 382.171,359.063 379.395,355.910 375.595 C 353.613 372.829,356.462 373.060,367.717 376.552 " stroke="none" fill="#000000" fill-rule="evenodd"></path></g></svg>