<svg id="svg" xmlns="http://www.w3.org/2000/svg" xmlns:xlink="http://www.w3.org/1999/xlink" width="400" height="374.00722021660647" viewBox="0, 0, 400,374.00722021660647"><g id="svgg"><path id="path0" d="M246.209 1.528 C 226.196 4.634,209.134 12.340,182.671 30.225 C 137.937 60.458,142.021 58.263,118.135 64.917 C 15.917 93.393,-19.559 149.101,8.888 236.469 C 70.247 424.918,355.384 415.858,395.682 224.179 C 420.911 104.175,342.018 -13.342,246.209 1.528 M281.588 13.771 C 385.759 37.918,423.564 199.638,347.425 295.404 C 251.524 416.024,47.024 365.763,15.065 213.718 C 1.111 147.332,32.067 102.222,105.908 81.339 C 134.441 73.270,142.819 69.572,163.577 55.888 C 228.031 13.396,248.484 6.097,281.588 13.771 M231.356 50.384 C 207.088 58.767,188.427 82.487,188.630 104.693 C 188.789 121.956,194.686 130.287,221.128 150.602 C 252.842 174.967,258.348 189.676,248.467 223.633 C 236.167 265.906,255.317 296.751,293.863 296.751 C 358.993 296.751,385.808 193.216,343.413 105.437 C 325.192 67.711,265.746 38.506,231.356 50.384 M264.418 60.680 C 288.210 65.192,320.679 88.917,330.576 109.022 C 368.131 185.306,350.289 280.747,297.580 285.526 C 265.404 288.444,250.756 264.534,260.553 225.088 C 270.452 185.231,263.566 168.302,225.993 140.134 C 207.664 126.392,201.435 119.227,199.222 109.339 C 192.589 79.699,227.461 53.671,264.418 60.680 M232.547 80.077 C 228.025 85.526,225.216 104.728,227.625 113.718 C 229.178 119.514,230.688 117.176,231.741 107.345 C 232.308 102.052,233.676 94.742,234.782 91.099 C 238.122 80.095,237.024 74.682,232.547 80.077 M264.031 93.176 C 254.416 98.398,244.762 133.890,252.183 136.738 C 260.620 139.975,283.094 114.759,283.466 101.636 C 283.734 92.207,273.787 87.877,264.031 93.176 M118.412 98.279 C 53.558 106.179,27.957 209.778,72.301 284.875 C 106.736 343.191,193.804 352.873,217.541 301.025 C 229.009 275.976,223.745 253.359,200.084 226.017 C 180.072 202.891,179.783 202.009,179.783 163.899 L 179.783 132.130 175.783 123.983 C 165.500 103.046,147.070 94.788,118.412 98.279 M274.368 103.724 C 274.368 108.433,267.186 119.996,262.253 123.229 L 258.894 125.429 260.027 119.393 C 262.912 104.011,274.368 91.493,274.368 103.724 M146.157 110.036 C 154.417 113.567,164.947 124.451,167.611 132.210 C 169.624 138.072,169.858 147.253,168.827 179.843 L 168.231 198.676 173.636 209.446 C 176.609 215.370,184.000 226.065,190.061 233.213 C 209.602 256.258,214.852 273.743,207.837 292.408 C 190.205 339.321,113.103 331.313,82.808 279.422 C 43.805 212.615,60.244 126.160,115.386 108.093 C 124.999 104.943,135.847 105.628,146.157 110.036 M297.473 123.711 C 284.076 133.844,268.118 151.625,272.420 151.625 C 276.080 151.625,306.137 124.000,306.137 120.636 C 306.137 118.763,302.139 120.181,297.473 123.711 M127.076 124.803 C 127.076 129.848,155.307 146.333,156.888 142.213 C 157.366 140.967,157.515 139.773,157.218 139.560 C 137.093 125.078,127.076 120.174,127.076 124.803 M105.794 144.323 C 95.894 153.665,103.843 167.753,122.487 173.909 C 143.585 180.875,163.502 178.089,155.535 169.285 C 154.178 167.786,153.069 165.459,153.069 164.114 C 153.069 150.884,115.505 135.158,105.794 144.323 M301.415 153.675 C 288.509 158.983,277.256 168.989,277.256 175.159 C 277.256 183.460,315.034 178.960,324.458 169.536 C 337.030 156.964,320.720 145.737,301.415 153.675 M131.095 155.106 C 134.841 157.020,140.085 160.856,142.747 163.630 L 147.588 168.674 137.440 166.740 C 123.498 164.084,112.635 158.315,112.635 153.567 C 112.635 150.335,123.539 151.244,131.095 155.106 M318.769 162.104 C 317.047 167.272,298.594 173.308,291.449 171.041 C 288.595 170.135,288.692 169.897,293.027 167.152 C 305.939 158.977,320.782 156.066,318.769 162.104 M215.804 167.639 C 215.269 168.505,217.148 171.592,219.980 174.499 C 228.554 183.300,231.548 191.920,232.223 209.747 C 233.069 232.103,238.267 229.275,238.267 206.458 C 238.267 186.425,221.791 157.952,215.804 167.639 M190.187 178.700 C 187.447 183.673,198.299 215.030,204.006 218.630 C 208.378 221.388,207.989 218.551,202.324 206.365 C 199.220 199.687,195.862 190.487,194.861 185.921 C 193.185 178.270,191.694 175.966,190.187 178.700 M118.773 190.703 C 107.626 194.116,113.275 196.321,131.047 195.494 C 150.624 194.583,152.851 194.151,150.434 191.734 C 148.276 189.576,124.936 188.816,118.773 190.703 M299.639 191.559 C 298.051 191.895,295.289 192.482,293.502 192.864 C 287.209 194.206,290.350 196.390,298.556 196.377 C 312.229 196.357,322.022 194.771,322.022 192.579 C 322.022 190.650,307.143 189.973,299.639 191.559 M107.153 212.459 C 85.161 223.345,90.929 247.699,114.312 242.684 C 137.598 237.690,163.421 213.262,148.556 210.289 C 137.361 208.050,113.539 209.299,107.153 212.459 M133.574 221.743 C 123.474 230.109,107.004 236.229,104.685 232.478 C 100.741 226.097,113.671 218.063,127.798 218.116 L 137.906 218.154 133.574 221.743 M278.872 220.705 C 273.919 224.083,285.649 244.418,295.150 248.926 C 310.981 256.439,326.893 244.550,316.901 232.675 C 309.692 224.108,285.191 216.396,278.872 220.705 M299.064 230.970 C 310.822 235.438,314.444 239.699,308.971 242.628 C 304.897 244.809,300.992 243.240,293.653 236.475 C 284.019 227.595,285.695 225.890,299.064 230.970 M156.393 238.095 C 143.573 248.879,137.814 255.359,139.528 257.073 C 141.349 258.894,150.647 252.527,161.372 242.115 C 174.170 229.692,170.196 226.483,156.393 238.095 M160.235 253.856 C 140.365 274.288,135.895 299.641,150.907 306.764 C 164.292 313.116,177.020 298.367,179.866 273.207 C 182.804 247.242,174.564 239.121,160.235 253.856 M281.859 252.797 C 282.597 255.010,301.519 265.027,302.711 263.835 C 303.262 263.284,302.471 261.438,300.954 259.733 C 296.069 254.243,280.450 248.569,281.859 252.797 M184.062 265.132 C 182.558 283.188,184.478 296.879,187.782 291.655 C 190.122 287.954,189.535 252.708,187.133 252.708 C 185.619 252.708,184.832 255.892,184.062 265.132 M170.647 272.597 C 167.699 290.389,159.984 301.702,154.304 296.562 C 148.918 291.688,150.844 284.259,162.005 266.861 C 170.947 252.920,173.615 254.690,170.647 272.597 " stroke="none" fill="#000000" fill-rule="evenodd"></path></g></svg>