<svg id="svg" xmlns="http://www.w3.org/2000/svg" xmlns:xlink="http://www.w3.org/1999/xlink" width="400" height="429.26829268292687" viewBox="0, 0, 400,429.26829268292687"><g id="svgg"><path id="path0" d="M136.141 8.975 C 26.005 45.326,-27.826 179.037,18.545 301.075 C 89.247 487.147,364.023 465.403,395.034 271.282 C 422.565 98.945,285.206 -40.225,136.141 8.975 M261.270 53.286 C 369.866 101.323,399.143 265.082,313.836 347.306 C 228.211 429.837,89.154 391.715,52.313 275.610 C 5.570 128.297,130.457 -4.579,261.270 53.286 M207.003 101.220 C 205.386 108.598,203.420 116.850,202.635 119.559 C 199.599 130.026,156.393 137.346,144.951 129.331 C 121.631 112.998,110.173 121.495,128.951 141.196 C 139.928 152.714,140.410 155.217,135.307 174.215 L 129.785 194.771 102.152 191.883 C 83.222 189.905,73.384 190.830,70.917 194.822 C 65.410 203.733,70.822 206.320,100.045 208.743 L 126.908 210.971 130.126 231.095 C 131.896 242.164,133.525 252.317,133.745 253.659 C 133.966 255.000,126.561 258.549,117.290 261.546 C 108.018 264.542,99.604 269.481,98.590 272.521 C 96.232 279.596,119.370 279.774,132.434 272.782 C 150.466 263.131,163.433 280.409,151.128 297.690 C 145.849 305.103,140.967 316.096,140.277 322.120 C 138.071 341.406,149.644 337.692,163.054 314.809 C 173.621 296.778,178.081 293.081,186.812 295.116 C 192.724 296.494,202.813 298.339,209.232 299.217 C 218.284 300.454,223.012 306.467,230.304 326.016 C 235.475 339.878,241.748 351.220,244.243 351.220 C 250.166 351.220,250.074 325.987,244.093 310.258 C 236.271 289.684,263.395 265.920,286.134 273.424 C 303.284 279.084,317.073 277.047,317.073 268.852 C 317.073 266.309,308.115 261.241,297.166 257.592 C 277.738 251.116,277.226 250.371,275.941 226.697 C 275.217 213.355,273.113 197.693,271.266 191.893 C 268.428 182.981,270.255 180.832,283.064 178.019 C 297.616 174.822,306.970 163.881,300.598 157.509 C 298.923 155.834,289.404 156.964,279.444 160.021 C 262.443 165.239,260.480 164.704,247.367 151.292 C 239.685 143.435,229.276 135.697,224.236 134.097 C 216.676 131.698,215.888 129.046,219.731 118.936 C 226.526 101.064,225.434 87.805,217.166 87.805 C 213.193 87.805,208.619 93.841,207.003 101.220 M217.519 166.069 C 257.174 185.266,262.091 238.320,226.384 261.716 C 181.166 291.344,135.673 203.505,177.571 167.466 C 193.564 153.710,192.094 153.761,217.519 166.069 " stroke="none" fill="#000000" fill-rule="evenodd"></path></g></svg>