<?xml version="1.0" encoding="utf-8"?>
<!-- Generator: Adobe Illustrator 26.0.1, SVG Export Plug-In . SVG Version: 6.00 Build 0)  -->
<svg version="1.1" id="svg" xmlns="http://www.w3.org/2000/svg" xmlns:xlink="http://www.w3.org/1999/xlink" x="0px" y="0px"
	 viewBox="0 0 400 464.3" style="enable-background:new 0 0 400 464.3;" xml:space="preserve">
<style type="text/css">
	.st0{fill-rule:evenodd;clip-rule:evenodd;}
</style>
<g id="svgg">
	<path id="path0" class="st0" fill="#ffffff" d="M247.6,4.8c-22.7,22.7,3.7,146.8,34.2,160.7c21.4,9.7,21.1,5.7,7.5,120.3
		c-19,159.8-15.4,178.6,33.4,178.6c47.7,0,50.3-11.3,36.6-158.1L348.8,194c-0.8-8.4,2.5-16.7,8.8-22.4l14.4-12.9l10.4-9.3
		c9-8,14.1-19.4,14.1-31.5V70.2c0-63.3-0.8-66.8-15.7-68.9c-14.7-2.1-15.9,0.9-17.9,46.4c-2.6,60.7-15.2,61.1-20,0.6
		c-5.4-68.1-33.9-71.7-37.1-4.7c-2.7,56.2-20,68.9-20,14.7C285.7,6.5,269.1-16.8,247.6,4.8 M17.5,26C-23,69.8,1.3,158.1,59.7,179.2
		l23.3,8.4l23.6,120c26.4,134.4,33.2,149.5,67.7,149.5c59.8,0,59.8-33.4,0.2-172.6c-46.4-108.2-46.8-109.8-35.7-133
		C182.7,59.5,82.6-44.1,17.5,26"/>
</g>
</svg>
